<?xml version="1.0" encoding="utf-8" standalone="no"?>
<!DOCTYPE svg PUBLIC "-//W3C//DTD SVG 1.1//EN"
  "http://www.w3.org/Graphics/SVG/1.1/DTD/svg11.dtd">
<!-- Created with matplotlib (https://matplotlib.org/) -->
<svg height="252pt" version="1.1" viewBox="0 0 324 252" width="324pt" xmlns="http://www.w3.org/2000/svg" xmlns:xlink="http://www.w3.org/1999/xlink">
 <metadata>
  <rdf:RDF xmlns:cc="http://creativecommons.org/ns#" xmlns:dc="http://purl.org/dc/elements/1.1/" xmlns:rdf="http://www.w3.org/1999/02/22-rdf-syntax-ns#">
   <cc:Work>
    <dc:type rdf:resource="http://purl.org/dc/dcmitype/StillImage"/>
    <dc:date>2020-11-09T14:40:58.670377</dc:date>
    <dc:format>image/svg+xml</dc:format>
    <dc:creator>
     <cc:Agent>
      <dc:title>Matplotlib v3.3.2, https://matplotlib.org/</dc:title>
     </cc:Agent>
    </dc:creator>
   </cc:Work>
  </rdf:RDF>
 </metadata>
 <defs>
  <style type="text/css">*{stroke-linecap:butt;stroke-linejoin:round;}</style>
 </defs>
 <g id="figure_1">
  <g id="patch_1">
   <path d="M 0 252 
L 324 252 
L 324 0 
L 0 0 
z
" style="fill:#ffffff;"/>
  </g>
  <g id="axes_1">
   <g id="patch_2">
    <path d="M 43.385756 212.488647 
L 313.2 212.488647 
L 313.2 10.8 
L 43.385756 10.8 
z
" style="fill:#ffffff;"/>
   </g>
   <g id="PathCollection_1">
    <defs>
     <path d="M 0 3 
C 0.795609 3 1.55874 2.683901 2.12132 2.12132 
C 2.683901 1.55874 3 0.795609 3 0 
C 3 -0.795609 2.683901 -1.55874 2.12132 -2.12132 
C 1.55874 -2.683901 0.795609 -3 0 -3 
C -0.795609 -3 -1.55874 -2.683901 -2.12132 -2.12132 
C -2.683901 -1.55874 -3 -0.795609 -3 0 
C -3 0.795609 -2.683901 1.55874 -2.12132 2.12132 
C -1.55874 2.683901 -0.795609 3 0 3 
z
" id="md86597bea0" style="stroke:#000000;stroke-opacity:0.7;"/>
    </defs>
    <g clip-path="url(#p84b0b88bc1)">
     <use style="fill-opacity:0.7;stroke:#000000;stroke-opacity:0.7;" x="55.65004" xlink:href="#md86597bea0" y="50.812425"/>
     <use style="fill-opacity:0.7;stroke:#000000;stroke-opacity:0.7;" x="137.411932" xlink:href="#md86597bea0" y="134.415622"/>
     <use style="fill-opacity:0.7;stroke:#000000;stroke-opacity:0.7;" x="219.173824" xlink:href="#md86597bea0" y="167.921962"/>
     <use style="fill-opacity:0.7;stroke:#000000;stroke-opacity:0.7;" x="300.935716" xlink:href="#md86597bea0" y="171.500309"/>
    </g>
   </g>
   <g id="PolyCollection_1">
    <path clip-path="url(#p84b0b88bc1)" d="M 55.65004 212.488647 
L 55.65004 50.812425 
L 137.411932 134.415622 
L 219.173824 167.921962 
L 300.935716 171.500309 
L 300.935716 212.488647 
L 300.935716 212.488647 
L 219.173824 212.488647 
L 137.411932 212.488647 
L 55.65004 212.488647 
z
" style="fill-opacity:0.05;"/>
   </g>
   <g id="PathCollection_2">
    <defs>
     <path d="M 0 3 
C 0.795609 3 1.55874 2.683901 2.12132 2.12132 
C 2.683901 1.55874 3 0.795609 3 0 
C 3 -0.795609 2.683901 -1.55874 2.12132 -2.12132 
C 1.55874 -2.683901 0.795609 -3 0 -3 
C -0.795609 -3 -1.55874 -2.683901 -2.12132 -2.12132 
C -2.683901 -1.55874 -3 -0.795609 -3 0 
C -3 0.795609 -2.683901 1.55874 -2.12132 2.12132 
C -1.55874 2.683901 -0.795609 3 0 3 
z
" id="m82492ced09" style="stroke:#008000;stroke-opacity:0.7;"/>
    </defs>
    <g clip-path="url(#p84b0b88bc1)">
     <use style="fill:#008000;fill-opacity:0.7;stroke:#008000;stroke-opacity:0.7;" x="55.65004" xlink:href="#m82492ced09" y="93.427284"/>
     <use style="fill:#008000;fill-opacity:0.7;stroke:#008000;stroke-opacity:0.7;" x="137.411932" xlink:href="#m82492ced09" y="182.885958"/>
     <use style="fill:#008000;fill-opacity:0.7;stroke:#008000;stroke-opacity:0.7;" x="219.173824" xlink:href="#m82492ced09" y="190.042652"/>
     <use style="fill:#008000;fill-opacity:0.7;stroke:#008000;stroke-opacity:0.7;" x="300.935716" xlink:href="#m82492ced09" y="58.294423"/>
    </g>
   </g>
   <g id="PolyCollection_2">
    <path clip-path="url(#p84b0b88bc1)" d="M 55.65004 212.488647 
L 55.65004 93.427284 
L 137.411932 182.885958 
L 219.173824 190.042652 
L 300.935716 58.294423 
L 300.935716 212.488647 
L 300.935716 212.488647 
L 219.173824 212.488647 
L 137.411932 212.488647 
L 55.65004 212.488647 
z
" style="fill:#008000;fill-opacity:0.05;"/>
   </g>
   <g id="matplotlib.axis_1">
    <g id="xtick_1">
     <g id="line2d_1">
      <defs>
       <path d="M 0 0 
L 0 3.5 
" id="mffcf348544" style="stroke:#000000;stroke-width:0.8;"/>
      </defs>
      <g>
       <use style="stroke:#000000;stroke-width:0.8;" x="55.65004" xlink:href="#mffcf348544" y="212.488647"/>
      </g>
     </g>
     <g id="text_1">
      <!-- 1 -->
      <g transform="translate(53.159372 226.407145)scale(0.1 -0.1)">
       <defs>
        <path d="M 26.59375 63.40625 
C 26.59375 65.5 26.5 65.5 25.09375 65.5 
C 21.203125 61.1875 15.296875 59.796875 9.703125 59.796875 
C 9.40625 59.796875 8.90625 59.796875 8.796875 59.5 
C 8.703125 59.296875 8.703125 59.09375 8.703125 57 
C 11.796875 57 17 57.59375 21 59.984375 
L 21 7.203125 
C 21 3.6875 20.796875 2.5 12.203125 2.5 
L 9.203125 2.5 
L 9.203125 0 
C 14 0 19 0 23.796875 0 
C 28.59375 0 33.59375 0 38.40625 0 
L 38.40625 2.5 
L 35.40625 2.5 
C 26.796875 2.5 26.59375 3.59375 26.59375 7.15625 
z
" id="CMR17-49"/>
       </defs>
       <use transform="scale(0.996264)" xlink:href="#CMR17-49"/>
      </g>
     </g>
    </g>
    <g id="xtick_2">
     <g id="line2d_2">
      <g>
       <use style="stroke:#000000;stroke-width:0.8;" x="137.411932" xlink:href="#mffcf348544" y="212.488647"/>
      </g>
     </g>
     <g id="text_2">
      <!-- 2 -->
      <g transform="translate(134.921264 226.407145)scale(0.1 -0.1)">
       <defs>
        <path d="M 41.703125 15.453125 
L 39.90625 15.453125 
C 38.90625 8.375 38.09375 7.171875 37.703125 6.5625 
C 37.203125 5.765625 30 5.765625 28.59375 5.765625 
L 9.40625 5.765625 
C 13 9.671875 20 16.75 28.5 24.953125 
C 34.59375 30.734375 41.703125 37.53125 41.703125 47.421875 
C 41.703125 59.21875 32.296875 66 21.796875 66 
C 10.796875 66 4.09375 56.3125 4.09375 47.34375 
C 4.09375 43.4375 7 42.9375 8.203125 42.9375 
C 9.203125 42.9375 12.203125 43.546875 12.203125 47.03125 
C 12.203125 50.109375 9.59375 51 8.203125 51 
C 7.59375 51 7 50.90625 6.59375 50.703125 
C 8.5 59.21875 14.296875 63.40625 20.40625 63.40625 
C 29.09375 63.40625 34.796875 56.515625 34.796875 47.421875 
C 34.796875 38.734375 29.703125 31.25 24 24.75 
L 4.09375 2.28125 
L 4.09375 0 
L 39.296875 0 
z
" id="CMR17-50"/>
       </defs>
       <use transform="scale(0.996264)" xlink:href="#CMR17-50"/>
      </g>
     </g>
    </g>
    <g id="xtick_3">
     <g id="line2d_3">
      <g>
       <use style="stroke:#000000;stroke-width:0.8;" x="219.173824" xlink:href="#mffcf348544" y="212.488647"/>
      </g>
     </g>
     <g id="text_3">
      <!-- 3 -->
      <g transform="translate(216.683156 226.407145)scale(0.1 -0.1)">
       <defs>
        <path d="M 22.09375 33.703125 
C 31 33.703125 34.90625 25.96875 34.90625 17.03125 
C 34.90625 5 28.5 0.390625 22.703125 0.390625 
C 17.40625 0.390625 8.796875 3.03125 6.09375 10.828125 
C 6.59375 10.625 7.09375 10.625 7.59375 10.625 
C 10 10.625 11.796875 12.21875 11.796875 14.8125 
C 11.796875 17.703125 9.59375 19 7.59375 19 
C 5.90625 19 3.296875 18.203125 3.296875 14.46875 
C 3.296875 5.234375 12.296875 -2 22.90625 -2 
C 34 -2 42.5 6.71875 42.5 16.953125 
C 42.5 26.671875 34.5 33.703125 25 34.796875 
C 32.59375 36.375 39.90625 43.0625 39.90625 52.015625 
C 39.90625 59.6875 32 65.296875 23 65.296875 
C 13.90625 65.296875 5.90625 59.828125 5.90625 52.015625 
C 5.90625 48.59375 8.5 48 9.796875 48 
C 11.90625 48 13.703125 49.296875 13.703125 51.890625 
C 13.703125 54.46875 11.90625 55.765625 9.796875 55.765625 
C 9.40625 55.765625 8.90625 55.765625 8.5 55.578125 
C 11.40625 61.859375 19.296875 63 22.796875 63 
C 26.296875 63 32.90625 61.328125 32.90625 51.875 
C 32.90625 49.109375 32.5 44.1875 29.09375 39.84375 
C 26.09375 36 22.703125 36 19.40625 35.6875 
C 18.90625 35.6875 16.59375 35.453125 16.203125 35.453125 
C 15.5 35.359375 15.09375 35.265625 15.09375 34.5 
C 15.09375 33.796875 15.203125 33.703125 17.203125 33.703125 
z
" id="CMR17-51"/>
       </defs>
       <use transform="scale(0.996264)" xlink:href="#CMR17-51"/>
      </g>
     </g>
    </g>
    <g id="xtick_4">
     <g id="line2d_4">
      <g>
       <use style="stroke:#000000;stroke-width:0.8;" x="300.935716" xlink:href="#mffcf348544" y="212.488647"/>
      </g>
     </g>
     <g id="text_4">
      <!-- 4+ -->
      <g transform="translate(294.570677 226.407145)scale(0.1 -0.1)">
       <defs>
        <path d="M 33.59375 64.40625 
C 33.59375 66.5 33.5 66.5 31.703125 66.5 
L 2 19.59375 
L 2 17 
L 27.796875 17 
L 27.796875 7.140625 
C 27.796875 3.5 27.59375 2.5 20.59375 2.5 
L 18.703125 2.5 
L 18.703125 0 
C 21.90625 0 27.296875 0 30.703125 0 
C 34.09375 0 39.5 0 42.703125 0 
L 42.703125 2.5 
L 40.796875 2.5 
C 33.796875 2.5 33.59375 3.5 33.59375 7.140625 
L 33.59375 17 
L 43.796875 17 
L 43.796875 19.59375 
L 33.59375 19.59375 
z
M 28.09375 57.859375 
L 28.09375 19.59375 
L 4 19.59375 
z
" id="CMR17-52"/>
        <path d="M 37.703125 23 
L 64.203125 23 
C 65.59375 23 67.296875 23 67.296875 24.6875 
C 67.296875 26.484375 65.703125 26.484375 64.203125 26.484375 
L 37.703125 26.484375 
L 37.703125 52.90625 
C 37.703125 54.296875 37.703125 56 36 56 
C 34.203125 56 34.203125 54.40625 34.203125 52.90625 
L 34.203125 26.484375 
L 7.703125 26.484375 
C 6.296875 26.484375 4.59375 26.484375 4.59375 24.796875 
C 4.59375 23 6.203125 23 7.703125 23 
L 34.203125 23 
L 34.203125 -3.40625 
C 34.203125 -4.796875 34.203125 -6.5 35.90625 -6.5 
C 37.703125 -6.5 37.703125 -4.90625 37.703125 -3.40625 
z
" id="CMR17-43"/>
       </defs>
       <use transform="scale(0.996264)" xlink:href="#CMR17-52"/>
       <use transform="translate(45.690477 0)scale(0.996264)" xlink:href="#CMR17-43"/>
      </g>
     </g>
    </g>
    <g id="text_5">
     <!-- $\textbf{Number of tokens}$ -->
     <g transform="translate(133.228767 239.262822)scale(0.1 -0.1)">
      <defs>
       <path d="M 29 66.90625 
C 28 68 27.90625 68 25.90625 68 
L 3.796875 68 
L 3.796875 63.828125 
L 14.40625 63.828125 
L 14.40625 6.953125 
C 14.40625 4.75 14.296875 4.65625 11.703125 4.25 
C 9.90625 4.0625 7.90625 4.0625 6.09375 4.0625 
L 3.796875 4.0625 
L 3.796875 -0.203125 
C 6.09375 0 13.90625 0 16.703125 0 
C 19.5 0 27.40625 0 29.703125 -0.203125 
L 29.703125 4.0625 
L 27.40625 4.0625 
C 24.703125 4.0625 24.5 4.0625 22.09375 4.359375 
C 19.203125 4.765625 19.09375 4.859375 19.09375 7.046875 
L 19.09375 60.4375 
L 68.59375 1.296875 
C 69.703125 0.09375 69.796875 0 71.09375 0 
C 73.5 0 73.5 0.59375 73.5 2.875 
L 73.5 60.9375 
C 73.5 63.125 73.59375 63.234375 76.203125 63.625 
C 78 63.828125 80 63.828125 81.796875 63.828125 
L 84.09375 63.828125 
L 84.09375 68.109375 
C 81.796875 68 74 68 71.203125 68 
C 68.40625 68 60.5 68 58.203125 68.109375 
L 58.203125 63.828125 
L 60.5 63.828125 
C 63.203125 63.828125 63.40625 63.828125 65.796875 63.53125 
C 68.703125 63.140625 68.796875 63.03125 68.796875 60.828125 
L 68.796875 19.203125 
z
" id="CMBX12-78"/>
       <path d="M 35.296875 44.671875 
L 35.296875 40 
C 41.5 40 42.203125 40 42.203125 36.125 
L 42.203125 16.5 
C 42.203125 8.890625 37.703125 2.78125 29.90625 2.78125 
C 22.40625 2.78125 22 5.265625 22 10.6875 
L 22 44.671875 
L 4.203125 44.671875 
L 4.203125 40 
C 10.40625 40 11.09375 40 11.09375 36.125 
L 11.09375 12.40625 
C 11.09375 2.390625 17.796875 -0.5 28.5 -0.5 
C 30.90625 -0.5 38.296875 -0.5 42.59375 7.75 
L 42.703125 7.75 
L 42.703125 0 
L 60 0 
L 60 4.5625 
C 53.796875 4.5625 53.09375 4.5625 53.09375 8.4375 
L 53.09375 44.671875 
z
" id="CMBX12-117"/>
       <path d="M 84.40625 30.0625 
C 84.40625 39.15625 80.5 44.28125 69.296875 44.28125 
C 59.203125 44.28125 54.5 37.609375 52.90625 34.46875 
C 51.296875 42.8125 44.5 44.28125 38.09375 44.28125 
C 28.5 44.28125 23.296875 38.203125 21.203125 33.484375 
L 21.09375 33.484375 
L 21.09375 44 
L 4.203125 44 
L 4.203125 39.328125 
C 10.40625 39.328125 11.09375 39.328125 11.09375 35.46875 
L 11.09375 4.0625 
L 4.203125 4.0625 
L 4.203125 -0.203125 
C 6.5 0 13.703125 0 16.5 0 
C 19.296875 0 26.59375 0 28.90625 -0.203125 
L 28.90625 4.0625 
L 22 4.0625 
L 22 25.109375 
C 22 35.875 30.09375 41 36.40625 41 
C 40.09375 41 42.296875 38.828125 42.296875 31.140625 
L 42.296875 4.0625 
L 35.40625 4.0625 
L 35.40625 -0.203125 
C 37.703125 0 44.90625 0 47.703125 0 
C 50.5 0 57.796875 0 60.09375 -0.203125 
L 60.09375 4.0625 
L 53.203125 4.0625 
L 53.203125 25.109375 
C 53.203125 35.875 61.296875 41 67.59375 41 
C 71.296875 41 73.5 38.828125 73.5 31.140625 
L 73.5 4.0625 
L 66.59375 4.0625 
L 66.59375 -0.203125 
C 68.90625 0 76.09375 0 78.90625 0 
C 81.703125 0 89 0 91.296875 -0.203125 
L 91.296875 4.0625 
L 84.40625 4.0625 
z
" id="CMBX12-109"/>
       <path d="M 20.796875 69 
L 3.5 69 
L 3.5 64.328125 
C 9.703125 64.328125 10.40625 64.328125 10.40625 60.421875 
L 10.40625 0 
L 14.59375 0 
C 16.296875 1.921875 18 3.859375 19.59375 5.875 
C 24.703125 0.59375 30.203125 -0.5 34.203125 -0.5 
C 48 -0.5 58.59375 7.875 58.59375 22.359375 
C 58.59375 36.015625 49.203125 45 35.5 45 
C 29.59375 45 24.90625 43.109375 20.796875 39.921875 
z
M 21.296875 35.125 
C 24.796875 39.921875 30 41.71875 34.203125 41.71875 
C 46.59375 41.71875 46.59375 29.046875 46.59375 22.453125 
C 46.59375 17.953125 46.59375 12.265625 44.203125 8.5625 
C 41.09375 3.765625 36.40625 2.78125 33.203125 2.78125 
C 26.40625 2.78125 22.703125 7.5625 21.296875 9.765625 
z
" id="CMBX12-98"/>
       <path d="M 45.203125 22 
C 47.5 22 48.09375 22 48.09375 24.484375 
C 48.09375 27.46875 47.40625 34.890625 42.796875 39.5625 
C 38.59375 43.71875 33 45 27.203125 45 
C 11.59375 45 3.09375 34.890625 3.09375 22.40625 
C 3.09375 8.515625 13.40625 -0.5 28.5 -0.5 
C 43.59375 -0.5 48.09375 10 48.09375 11.6875 
C 48.09375 13.171875 46.59375 13.171875 46 13.171875 
C 44.40625 13.171875 44.296875 12.875 43.703125 11.59375 
C 41.09375 5.15625 34.5 3.078125 29.703125 3.078125 
C 15.203125 3.078125 15.09375 16.453125 15.09375 22 
z
M 15.09375 24.890625 
C 15.296875 28.9375 15.40625 32.8125 17.5 36.375 
C 19.40625 39.546875 22.90625 41.71875 27.203125 41.71875 
C 37.90625 41.71875 38.796875 29.828125 38.90625 24.890625 
z
" id="CMBX12-101"/>
       <path d="M 20.796875 22.046875 
C 20.796875 25.296875 21.5 41 33.203125 41 
C 31.796875 39.921875 31.09375 38.25 31.09375 36.5 
C 31.09375 32.484375 34.40625 30.8125 36.90625 30.8125 
C 39.40625 30.8125 42.703125 32.484375 42.703125 36.515625 
C 42.703125 41.53125 37.5 44.28125 32.703125 44.28125 
C 24.796875 44.28125 21.40625 37.515625 20 33.390625 
L 19.90625 33.390625 
L 19.90625 44 
L 3.5 44 
L 3.5 39.328125 
C 9.703125 39.328125 10.40625 39.328125 10.40625 35.46875 
L 10.40625 4.0625 
L 3.5 4.0625 
L 3.5 -0.203125 
C 5.796875 0 13.296875 0 16.09375 0 
C 19 0 27.09375 0 29.5 -0.203125 
L 29.5 4.0625 
L 20.796875 4.0625 
z
" id="CMBX12-114"/>
       <path d="M 53 21.796875 
C 53 35.1875 43.796875 45 28.09375 45 
C 11.796875 45 3.09375 34.6875 3.09375 21.796875 
C 3.09375 8.828125 12.296875 -0.5 28 -0.5 
C 44.296875 -0.5 53 9.3125 53 21.796875 
z
M 28.09375 3.078125 
C 15.09375 3.078125 15.09375 14.671875 15.09375 22.796875 
C 15.09375 27.453125 15.09375 32.40625 17 35.984375 
C 19.203125 39.9375 23.703125 41.71875 28 41.71875 
C 33.703125 41.71875 37.296875 39.046875 39 36.28125 
C 41 32.703125 41 27.546875 41 22.796875 
C 41 14.5625 41 3.078125 28.09375 3.078125 
z
" id="CMBX12-111"/>
       <path d="M 21.703125 39.734375 
L 33.09375 39.734375 
L 33.09375 44 
L 21.203125 44 
L 21.203125 54.15625 
C 21.203125 64.421875 27.796875 66 31.09375 66 
C 32.203125 66 32.40625 65.890625 33 65.703125 
C 31.5 64.703125 30.59375 63.03125 30.59375 60.96875 
C 30.59375 57.015625 33.796875 55.25 36.40625 55.25 
C 38.59375 55.25 42.203125 56.71875 42.203125 61.078125 
C 42.203125 65.125 38.59375 69.28125 31.5 69.28125 
C 22.40625 69.28125 11.296875 65.515625 11.296875 54.0625 
L 11.296875 44 
L 3.90625 44 
L 3.90625 39.734375 
L 11.296875 39.734375 
L 11.296875 4.0625 
L 4.40625 4.0625 
L 4.40625 -0.203125 
C 6.703125 0 14.203125 0 17 0 
C 19.90625 0 28 0 30.40625 -0.203125 
L 30.40625 4.0625 
L 21.703125 4.0625 
z
" id="CMBX12-102"/>
       <path d="M 21.09375 40 
L 35.5 40 
L 35.5 44.265625 
L 21.09375 44.265625 
L 21.09375 63 
L 16.90625 63 
C 16.796875 53.203125 12 43.375 2.09375 43.375 
L 2.09375 40 
L 10.203125 40 
L 10.203125 12.328125 
C 10.203125 1.78125 18.40625 -0.5 25.59375 -0.5 
C 33 -0.5 37.40625 5.078125 37.40625 12.421875 
L 37.40625 17.703125 
L 33.203125 17.703125 
L 33.203125 12.53125 
C 33.203125 5.953125 30.203125 3.078125 27.09375 3.078125 
C 21.09375 3.078125 21.09375 9.75 21.09375 12.03125 
z
" id="CMBX12-116"/>
       <path d="M 33.203125 27.8125 
L 45.796875 38.03125 
C 47 39.03125 48.09375 39.9375 55 39.9375 
L 55 44.203125 
C 52.40625 44 50.40625 44 46.703125 44 
C 44.09375 44 38.5 44 36.203125 44.203125 
L 36.203125 39.9375 
C 37.40625 39.9375 39.796875 39.640625 39.796875 38.828125 
C 39.796875 38.421875 39.203125 38.03125 39 37.828125 
L 20.796875 23.203125 
L 20.796875 69 
L 3.5 69 
L 3.5 64.328125 
C 9.703125 64.328125 10.40625 64.328125 10.40625 60.390625 
L 10.40625 4.0625 
L 3.5 4.0625 
L 3.5 -0.203125 
C 5.796875 0 12.703125 0 15.40625 0 
C 18.09375 0 25 0 27.296875 -0.203125 
L 27.296875 4.0625 
L 20.40625 4.0625 
L 20.40625 17.484375 
C 22 18.703125 23.5 19.984375 25.703125 21.796875 
L 37.796875 6.171875 
C 38.5 5.375 38.5 5.171875 38.5 5.078125 
C 38.5 4.0625 36.5 4.0625 35.09375 4.0625 
L 35.09375 -0.203125 
C 37.5 0 44.09375 0 46.796875 0 
C 51.90625 0 53.296875 0 57.5 0 
L 57.5 4.0625 
C 55.90625 4.0625 53.90625 4.0625 52.796875 4.171875 
C 51.40625 4.46875 51 4.765625 49.90625 6.171875 
z
" id="CMBX12-107"/>
       <path d="M 53.09375 30.0625 
C 53.09375 39.453125 49 44.28125 38 44.28125 
C 30.796875 44.28125 24.59375 40.859375 21.203125 33.484375 
L 21.09375 33.484375 
L 21.09375 44 
L 4.203125 44 
L 4.203125 39.328125 
C 10.40625 39.328125 11.09375 39.328125 11.09375 35.46875 
L 11.09375 4.0625 
L 4.203125 4.0625 
L 4.203125 -0.203125 
C 6.5 0 13.703125 0 16.5 0 
C 19.296875 0 26.59375 0 28.90625 -0.203125 
L 28.90625 4.0625 
L 22 4.0625 
L 22 25.109375 
C 22 35.765625 30 41 36.40625 41 
C 40.09375 41 42.203125 38.640625 42.203125 31.140625 
L 42.203125 4.0625 
L 35.296875 4.0625 
L 35.296875 -0.203125 
C 37.59375 0 44.796875 0 47.59375 0 
C 50.40625 0 57.703125 0 60 -0.203125 
L 60 4.0625 
L 53.09375 4.0625 
z
" id="CMBX12-110"/>
       <path d="M 37.703125 42.421875 
C 37.703125 44.3125 37.703125 45 36.203125 45 
C 35.59375 45 35.40625 45 33.90625 44.109375 
C 33.5 43.8125 32.40625 43.109375 31.90625 42.8125 
C 29.09375 44.40625 25.40625 45 21.796875 45 
C 18.796875 45 3.796875 45 3.796875 32.125 
C 3.796875 21.703125 16.203125 19.53125 19.296875 19.03125 
C 22 18.546875 25.296875 17.9375 25.703125 17.9375 
C 29.703125 17.046875 33.703125 14.5625 33.703125 10.40625 
C 33.703125 2.78125 24.59375 2.78125 22.5 2.78125 
C 17.40625 2.78125 11.09375 4.359375 8.296875 14 
C 7.703125 15.984375 7.59375 15.984375 5.90625 15.984375 
C 3.796875 15.984375 3.796875 15.6875 3.796875 13.40625 
L 3.796875 2.0625 
C 3.796875 0.1875 3.796875 -0.5 5.296875 -0.5 
C 6 -0.5 6.203125 -0.5 8.203125 1.09375 
L 10.796875 2.984375 
C 15.296875 -0.5 20.703125 -0.5 22.5 -0.5 
C 28 -0.5 40.5 0.6875 40.5 13.875 
C 40.5 18.625 37.90625 21.90625 35.90625 23.6875 
C 31.796875 27.046875 28.40625 27.65625 23 28.640625 
C 16.59375 29.734375 10.59375 30.828125 10.59375 35.578125 
C 10.59375 42.015625 19.5 42.015625 21.59375 42.015625 
C 32.703125 42.015625 33.296875 35.078125 33.5 32.609375 
C 33.59375 31.328125 34.40625 31.328125 35.59375 31.328125 
C 37.703125 31.328125 37.703125 31.625 37.703125 33.90625 
z
" id="CMBX12-115"/>
      </defs>
      <use transform="scale(0.996264)" xlink:href="#CMBX12-78"/>
      <use transform="translate(87.634475 0)scale(0.996264)" xlink:href="#CMBX12-117"/>
      <use transform="translate(149.900976 0)scale(0.996264)" xlink:href="#CMBX12-109"/>
      <use transform="translate(240.187401 0)scale(0.996264)" xlink:href="#CMBX12-98"/>
      <use transform="translate(305.567227 0)scale(0.996264)" xlink:href="#CMBX12-101"/>
      <use transform="translate(356.706494 0)scale(0.996264)" xlink:href="#CMBX12-114"/>
      <use transform="translate(439.843902 0)scale(0.996264)" xlink:href="#CMBX12-111"/>
      <use transform="translate(495.883753 0)scale(0.996264)" xlink:href="#CMBX12-102"/>
      <use transform="translate(567.490228 0)scale(0.996264)" xlink:href="#CMBX12-116"/>
      <use transform="translate(611.076779 0)scale(0.996264)" xlink:href="#CMBX12-111"/>
      <use transform="translate(667.116629 0)scale(0.996264)" xlink:href="#CMBX12-107"/>
      <use transform="translate(723.15648 0)scale(0.996264)" xlink:href="#CMBX12-101"/>
      <use transform="translate(774.295747 0)scale(0.996264)" xlink:href="#CMBX12-110"/>
      <use transform="translate(836.562248 0)scale(0.996264)" xlink:href="#CMBX12-115"/>
     </g>
    </g>
   </g>
   <g id="matplotlib.axis_2">
    <g id="ytick_1">
     <g id="line2d_5">
      <defs>
       <path d="M 0 0 
L -3.5 0 
" id="m8c71c4cee2" style="stroke:#000000;stroke-width:0.8;"/>
      </defs>
      <g>
       <use style="stroke:#000000;stroke-width:0.8;" x="43.385756" xlink:href="#m8c71c4cee2" y="212.488647"/>
      </g>
     </g>
     <g id="text_6">
      <!-- $\mathdefault{0.0}$ -->
      <g transform="translate(23.655677 215.947896)scale(0.1 -0.1)">
       <defs>
        <path d="M 42 31.640625 
C 42 37.75 41.90625 48.125 37.703125 56.109375 
C 34 63.109375 28.09375 65.59375 22.90625 65.59375 
C 18.09375 65.59375 12 63.40625 8.203125 56.203125 
C 4.203125 48.71875 3.796875 39.4375 3.796875 31.640625 
C 3.796875 25.953125 3.90625 17.28125 7 9.671875 
C 11.296875 -0.609375 19 -2 22.90625 -2 
C 27.5 -2 34.5 -0.109375 38.59375 9.375 
C 41.59375 16.28125 42 24.359375 42 31.640625 
z
M 22.90625 -0.40625 
C 16.5 -0.40625 12.703125 5.078125 11.296875 12.6875 
C 10.203125 18.5625 10.203125 27.15625 10.203125 32.75 
C 10.203125 40.4375 10.203125 46.828125 11.5 52.921875 
C 13.40625 61.390625 19 64 22.90625 64 
C 27 64 32.296875 61.296875 34.203125 53.125 
C 35.5 47.4375 35.59375 40.734375 35.59375 32.75 
C 35.59375 26.25 35.59375 18.265625 34.40625 12.375 
C 32.296875 1.484375 26.40625 -0.40625 22.90625 -0.40625 
z
" id="CMR17-48"/>
        <path d="M 18.40625 4.796875 
C 18.40625 7.6875 16 9.671875 13.59375 9.671875 
C 10.703125 9.671875 8.703125 7.28125 8.703125 4.890625 
C 8.703125 2 11.09375 0 13.5 0 
C 16.40625 0 18.40625 2.390625 18.40625 4.796875 
z
" id="CMMI12-58"/>
       </defs>
       <use transform="scale(0.996264)" xlink:href="#CMR17-48"/>
       <use transform="translate(45.690477 0)scale(0.996264)" xlink:href="#CMMI12-58"/>
       <use transform="translate(72.787654 0)scale(0.996264)" xlink:href="#CMR17-48"/>
      </g>
     </g>
    </g>
    <g id="ytick_2">
     <g id="line2d_6">
      <g>
       <use style="stroke:#000000;stroke-width:0.8;" x="43.385756" xlink:href="#m8c71c4cee2" y="179.95822"/>
      </g>
     </g>
     <g id="text_7">
      <!-- $\mathdefault{0.1}$ -->
      <g transform="translate(23.655677 183.417469)scale(0.1 -0.1)">
       <use transform="scale(0.996264)" xlink:href="#CMR17-48"/>
       <use transform="translate(45.690477 0)scale(0.996264)" xlink:href="#CMMI12-58"/>
       <use transform="translate(72.787654 0)scale(0.996264)" xlink:href="#CMR17-49"/>
      </g>
     </g>
    </g>
    <g id="ytick_3">
     <g id="line2d_7">
      <g>
       <use style="stroke:#000000;stroke-width:0.8;" x="43.385756" xlink:href="#m8c71c4cee2" y="147.427793"/>
      </g>
     </g>
     <g id="text_8">
      <!-- $\mathdefault{0.2}$ -->
      <g transform="translate(23.655677 150.887042)scale(0.1 -0.1)">
       <use transform="scale(0.996264)" xlink:href="#CMR17-48"/>
       <use transform="translate(45.690477 0)scale(0.996264)" xlink:href="#CMMI12-58"/>
       <use transform="translate(72.787654 0)scale(0.996264)" xlink:href="#CMR17-50"/>
      </g>
     </g>
    </g>
    <g id="ytick_4">
     <g id="line2d_8">
      <g>
       <use style="stroke:#000000;stroke-width:0.8;" x="43.385756" xlink:href="#m8c71c4cee2" y="114.897366"/>
      </g>
     </g>
     <g id="text_9">
      <!-- $\mathdefault{0.3}$ -->
      <g transform="translate(23.655677 118.356615)scale(0.1 -0.1)">
       <use transform="scale(0.996264)" xlink:href="#CMR17-48"/>
       <use transform="translate(45.690477 0)scale(0.996264)" xlink:href="#CMMI12-58"/>
       <use transform="translate(72.787654 0)scale(0.996264)" xlink:href="#CMR17-51"/>
      </g>
     </g>
    </g>
    <g id="ytick_5">
     <g id="line2d_9">
      <g>
       <use style="stroke:#000000;stroke-width:0.8;" x="43.385756" xlink:href="#m8c71c4cee2" y="82.366939"/>
      </g>
     </g>
     <g id="text_10">
      <!-- $\mathdefault{0.4}$ -->
      <g transform="translate(23.655677 85.826188)scale(0.1 -0.1)">
       <use transform="scale(0.996264)" xlink:href="#CMR17-48"/>
       <use transform="translate(45.690477 0)scale(0.996264)" xlink:href="#CMMI12-58"/>
       <use transform="translate(72.787654 0)scale(0.996264)" xlink:href="#CMR17-52"/>
      </g>
     </g>
    </g>
    <g id="ytick_6">
     <g id="line2d_10">
      <g>
       <use style="stroke:#000000;stroke-width:0.8;" x="43.385756" xlink:href="#m8c71c4cee2" y="49.836512"/>
      </g>
     </g>
     <g id="text_11">
      <!-- $\mathdefault{0.5}$ -->
      <g transform="translate(23.655677 53.295761)scale(0.1 -0.1)">
       <defs>
        <path d="M 11.40625 57.6875 
C 12.40625 57.28125 16.5 56 20.703125 56 
C 30 56 35.09375 61.109375 38 64.0625 
C 38 64.953125 38 65.5 37.40625 65.5 
C 37.296875 65.5 37.09375 65.5 36.296875 65.046875 
C 32.796875 63.40625 28.703125 62.078125 23.703125 62.078125 
C 20.703125 62.078125 16.203125 62.484375 11.296875 64.671875 
C 10.203125 65.171875 10 65.171875 9.90625 65.171875 
C 9.40625 65.171875 9.296875 65.0625 9.296875 63.078125 
L 9.296875 34.421875 
C 9.296875 32.640625 9.296875 32.140625 10.296875 32.140625 
C 10.796875 32.140625 11 32.34375 11.5 33.03125 
C 14.703125 37.515625 19.09375 39.40625 24.09375 39.40625 
C 27.59375 39.40625 35.09375 37.21875 35.09375 20.140625 
C 35.09375 16.953125 35.09375 11.171875 32.09375 6.578125 
C 29.59375 2.484375 25.703125 0.390625 21.40625 0.390625 
C 14.796875 0.390625 8.09375 5 6.296875 12.71875 
C 6.703125 12.609375 7.5 12.421875 7.90625 12.421875 
C 9.203125 12.421875 11.703125 13.125 11.703125 16.21875 
C 11.703125 18.90625 9.796875 20 7.90625 20 
C 5.59375 20 4.09375 18.59375 4.09375 15.796875 
C 4.09375 7.09375 11 -2 21.59375 -2 
C 31.90625 -2 41.703125 6.875 41.703125 19.75 
C 41.703125 31.71875 33.90625 41 24.203125 41 
C 19.09375 41 14.796875 39.109375 11.40625 35.53125 
z
" id="CMR17-53"/>
       </defs>
       <use transform="scale(0.996264)" xlink:href="#CMR17-48"/>
       <use transform="translate(45.690477 0)scale(0.996264)" xlink:href="#CMMI12-58"/>
       <use transform="translate(72.787654 0)scale(0.996264)" xlink:href="#CMR17-53"/>
      </g>
     </g>
    </g>
    <g id="ytick_7">
     <g id="line2d_11">
      <g>
       <use style="stroke:#000000;stroke-width:0.8;" x="43.385756" xlink:href="#m8c71c4cee2" y="17.306085"/>
      </g>
     </g>
     <g id="text_12">
      <!-- $\mathdefault{0.6}$ -->
      <g transform="translate(23.655677 20.765335)scale(0.1 -0.1)">
       <defs>
        <path d="M 10.59375 34 
C 10.59375 57.65625 21.796875 63 28.296875 63 
C 30.40625 63 35.5 62.640625 37.5 59 
C 35.90625 59 32.90625 59 32.90625 55.515625 
C 32.90625 52.828125 35.09375 51.921875 36.5 51.921875 
C 37.40625 51.921875 40.09375 52.3125 40.09375 55.625 
C 40.09375 61.78125 35.09375 65.296875 28.203125 65.296875 
C 16.296875 65.296875 3.796875 52.96875 3.796875 31 
C 3.796875 3.953125 15.09375 -2 23.09375 -2 
C 32.796875 -2 42 6.671875 42 20.046875 
C 42 32.515625 33.90625 41.59375 23.703125 41.59375 
C 17.59375 41.59375 13.09375 37.609375 10.59375 30.625 
z
M 23.09375 0.390625 
C 10.796875 0.390625 10.796875 18.75 10.796875 22.4375 
C 10.796875 29.625 14.203125 40 23.5 40 
C 25.203125 40 30.09375 40 33.40625 33.125 
C 35.203125 29.21875 35.203125 25.140625 35.203125 20.140625 
C 35.203125 14.75 35.203125 10.78125 33.09375 6.78125 
C 30.90625 2.671875 27.703125 0.390625 23.09375 0.390625 
z
" id="CMR17-54"/>
       </defs>
       <use transform="scale(0.996264)" xlink:href="#CMR17-48"/>
       <use transform="translate(45.690477 0)scale(0.996264)" xlink:href="#CMMI12-58"/>
       <use transform="translate(72.787654 0)scale(0.996264)" xlink:href="#CMR17-54"/>
      </g>
     </g>
    </g>
    <g id="text_13">
     <!-- $\textbf{PMF}$ -->
     <g transform="translate(17.718498 124.602604)rotate(-90)scale(0.1 -0.1)">
      <defs>
       <path d="M 27.59375 30.21875 
L 44.59375 30.21875 
C 61.296875 30.21875 70.59375 38.65625 70.59375 48.875 
C 70.59375 59.5625 61.09375 68 44.59375 68 
L 3.796875 68 
L 3.796875 63.71875 
L 14.40625 63.71875 
L 14.40625 4.171875 
L 3.796875 4.171875 
L 3.796875 0 
C 6.703125 0 17.40625 0 21 0 
C 24.59375 0 35.296875 0 38.203125 0 
L 38.203125 4.171875 
L 27.59375 4.171875 
z
M 41 63.71875 
C 56.5 63.71875 56.5 55.59375 56.5 48.859375 
C 56.5 42.328125 56.5 34 41 34 
L 27.09375 34 
L 27.09375 63.71875 
z
" id="CMBX12-80"/>
       <path d="M 53.296875 12.453125 
L 29.296875 65.90625 
C 28.40625 68 27.5 68 25.40625 68 
L 4.09375 68 
L 4.09375 63.71875 
L 14.703125 63.71875 
L 14.703125 6.9375 
C 14.703125 4.75 14.59375 4.65625 12 4.25 
C 10.203125 4.0625 8.203125 4.0625 6.40625 4.0625 
L 4.09375 4.0625 
L 4.09375 -0.203125 
C 6.40625 0 14.203125 0 17 0 
C 19.796875 0 27.703125 0 30 -0.203125 
L 30 4.0625 
L 27.703125 4.0625 
C 25 4.0625 24.796875 4.0625 22.40625 4.359375 
C 19.5 4.765625 19.40625 4.859375 19.40625 7.046875 
L 19.40625 62.53125 
L 19.5 62.53125 
L 46.703125 2.09375 
C 47.203125 1 47.796875 0 49.5 0 
C 51.203125 0 51.796875 1 52.296875 2.09375 
L 80 63.71875 
L 80.09375 63.71875 
L 80.09375 4.0625 
L 69.5 4.0625 
L 69.5 -0.203125 
C 72.203125 0 82.59375 0 86 0 
C 89.40625 0 99.796875 0 102.5 -0.203125 
L 102.5 4.0625 
L 91.90625 4.0625 
L 91.90625 63.71875 
L 102.5 63.71875 
L 102.5 68 
L 81.203125 68 
C 79.09375 68 78.203125 68 77.296875 65.90625 
z
" id="CMBX12-77"/>
       <path d="M 63 67.28125 
L 3.796875 67.28125 
L 3.796875 63 
L 14.40625 63 
L 14.40625 4.171875 
L 3.796875 4.171875 
L 3.796875 0 
C 6.703125 0 18.09375 0 21.796875 0 
C 27.09375 0 36 0 40.90625 0 
L 40.90625 4.171875 
L 27.59375 4.171875 
L 27.59375 31.71875 
L 33.09375 31.71875 
C 42.703125 31.71875 43.5 27.3125 43.5 20 
L 47.703125 20 
L 47.703125 47.53125 
L 43.5 47.53125 
C 43.5 40.328125 42.703125 36 33.09375 36 
L 27.59375 36 
L 27.59375 63 
L 41.90625 63 
C 57.796875 63 60.296875 55.875 61.703125 44.078125 
L 65.90625 44.078125 
z
" id="CMBX12-70"/>
      </defs>
      <use transform="scale(0.996264)" xlink:href="#CMBX12-80"/>
      <use transform="translate(76.564811 0)scale(0.996264)" xlink:href="#CMBX12-77"/>
      <use transform="translate(182.879236 0)scale(0.996264)" xlink:href="#CMBX12-70"/>
     </g>
    </g>
   </g>
   <g id="line2d_12">
    <path clip-path="url(#p84b0b88bc1)" d="M 55.65004 50.812425 
L 137.411932 134.415622 
L 219.173824 167.921962 
L 300.935716 171.500309 
" style="fill:none;stroke:#000000;stroke-linecap:square;stroke-opacity:0.5;"/>
   </g>
   <g id="line2d_13">
    <path clip-path="url(#p84b0b88bc1)" d="M 55.65004 93.427284 
L 137.411932 182.885958 
L 219.173824 190.042652 
L 300.935716 58.294423 
" style="fill:none;stroke:#008000;stroke-linecap:square;stroke-opacity:0.5;"/>
   </g>
   <g id="patch_3">
    <path d="M 43.385756 212.488647 
L 43.385756 10.8 
" style="fill:none;stroke:#000000;stroke-linecap:square;stroke-linejoin:miter;stroke-width:0.3;"/>
   </g>
   <g id="patch_4">
    <path d="M 313.2 212.488647 
L 313.2 10.8 
" style="fill:none;"/>
   </g>
   <g id="patch_5">
    <path d="M 43.385756 212.488647 
L 313.2 212.488647 
" style="fill:none;stroke:#000000;stroke-linecap:square;stroke-linejoin:miter;stroke-width:0.3;"/>
   </g>
   <g id="patch_6">
    <path d="M 43.385756 10.8 
L 313.2 10.8 
" style="fill:none;"/>
   </g>
   <g id="legend_1">
    <g id="patch_7">
     <path d="M 164.084992 48.013741 
L 306.2 48.013741 
Q 308.2 48.013741 308.2 46.013741 
L 308.2 17.8 
Q 308.2 15.8 306.2 15.8 
L 164.084992 15.8 
Q 162.084992 15.8 162.084992 17.8 
L 162.084992 46.013741 
Q 162.084992 48.013741 164.084992 48.013741 
z
" style="fill:#ffffff;opacity:0.8;stroke:#cccccc;stroke-linejoin:miter;"/>
    </g>
    <g id="PathCollection_3">
     <g>
      <use style="fill-opacity:0.7;stroke:#000000;stroke-opacity:0.7;" x="176.084992" xlink:href="#md86597bea0" y="24.773438"/>
     </g>
    </g>
    <g id="text_14">
     <!-- Ground Truth -->
     <g transform="translate(194.084992 27.398438)scale(0.1 -0.1)">
      <defs>
       <path d="M 62.09375 19.265625 
C 62.09375 23.015625 62.40625 23.515625 68.59375 23.515625 
L 68.59375 26.09375 
C 66.203125 26 60.796875 26 58.09375 26 
C 55.296875 26 47.5 26 43.703125 26 
L 43.703125 23.515625 
L 46.703125 23.515625 
C 55.296875 23.515625 55.5 22.40625 55.5 18.765625 
L 55.5 12.09375 
C 55.5 0.984375 42.5 0.984375 39.40625 0.984375 
C 29.09375 0.984375 12.203125 7.984375 12.203125 33.75 
C 12.203125 59.5 28.796875 66.40625 38.5 66.40625 
C 49.796875 66.40625 58 56.65625 59.90625 42.828125 
C 60.09375 41.625 60.09375 41.421875 61 41.421875 
C 62.09375 41.421875 62.09375 41.625 62.09375 43.421875 
L 62.09375 67 
C 62.09375 68.78125 62 68.890625 61.40625 68.890625 
C 61 68.890625 60.90625 68.78125 60.203125 67.59375 
L 55.796875 59.234375 
C 50.90625 65.421875 44.90625 69 37.203125 69 
C 20.09375 69 4.59375 54 4.59375 33.5625 
C 4.59375 13.203125 19.796875 -2 37.40625 -2 
C 45.5 -2 53.40625 0.875 56.5 6.515625 
C 58.203125 2.46875 61 -0.3125 61.5 -0.3125 
C 62 -0.3125 62.09375 -0.203125 62.09375 1.5625 
z
" id="CMR17-71"/>
       <path d="M 15 23.390625 
C 15 33 19.09375 42 26.59375 42 
C 27.296875 42 28 41.90625 28.703125 41.59375 
C 28.703125 41.59375 26.5 40.890625 26.5 38.3125 
C 26.5 35.90625 28.40625 34.90625 29.90625 34.90625 
C 31.09375 34.90625 33.296875 35.609375 33.296875 38.40625 
C 33.296875 41.609375 30.09375 43.59375 26.703125 43.59375 
C 19.09375 43.59375 15.796875 36.203125 14.796875 32.703125 
L 14.703125 32.703125 
L 14.703125 43.59375 
L 3.09375 42.5 
L 3.09375 39.90625 
C 9 39.90625 9.90625 39.296875 9.90625 34.5 
L 9.90625 6.6875 
C 9.90625 2.875 9.5 2.390625 3.09375 2.390625 
L 3.09375 -0.203125 
C 5.5 0 10.09375 0 12.703125 0 
C 15.59375 0 20.703125 0 23.40625 -0.203125 
L 23.40625 2.390625 
C 16.203125 2.390625 15 2.390625 15 6.875 
z
" id="CMR17-114"/>
       <path d="M 43.09375 21.1875 
C 43.09375 34 33.796875 44 22.90625 44 
C 12 44 2.703125 34 2.703125 21.1875 
C 2.703125 8.609375 12 -1 22.90625 -1 
C 33.796875 -1 43.09375 8.609375 43.09375 21.1875 
z
M 22.90625 0.796875 
C 18.203125 0.796875 14.203125 3.59375 11.90625 7.5 
C 9.40625 11.984375 9.09375 17.59375 9.09375 22 
C 9.09375 26.203125 9.296875 31.40625 11.90625 35.90625 
C 13.90625 39.203125 17.796875 42.40625 22.90625 42.40625 
C 27.40625 42.40625 31.203125 39.90625 33.59375 36.40625 
C 36.703125 31.703125 36.703125 25.109375 36.703125 22 
C 36.703125 18.09375 36.5 12.109375 33.796875 7.296875 
C 31 2.703125 26.703125 0.796875 22.90625 0.796875 
z
" id="CMR17-111"/>
       <path d="M 29.40625 42.078125 
L 29.40625 39.5 
C 35.296875 39.5 36.203125 38.890625 36.203125 34.15625 
L 36.203125 16.125 
C 36.203125 7.8125 31.703125 0.59375 24.296875 0.59375 
C 16.09375 0.59375 15.40625 5.4375 15.40625 10.59375 
L 15.40625 43.171875 
L 3.296875 42.078125 
L 3.296875 39.5 
C 7.296875 39.5 10 39.5 10.09375 35.53125 
L 10.09375 16.53125 
C 10.09375 9.890625 10.09375 5.640625 12.703125 2.859375 
C 14 1.578125 16.5 -1 23.703125 -1 
C 32.203125 -1 35.5 5.890625 36.296875 7.90625 
L 36.40625 7.90625 
L 36.40625 -0.984375 
L 48.296875 -0.984375 
L 48.296875 2 
C 42.40625 2 41.5 2.59375 41.5 7.390625 
L 41.5 43.171875 
z
" id="CMR17-117"/>
       <path d="M 41.5 30.203125 
C 41.5 35.296875 40.5 43.59375 28.703125 43.59375 
C 20.796875 43.59375 16.703125 37.5 15.203125 33.5 
L 15.09375 33.5 
L 15.09375 43.59375 
L 3.296875 42.5 
L 3.296875 39.90625 
C 9.203125 39.90625 10.09375 39.296875 10.09375 34.5 
L 10.09375 6.6875 
C 10.09375 2.875 9.703125 2.390625 3.296875 2.390625 
L 3.296875 -0.203125 
C 5.703125 0 10.09375 0 12.703125 0 
C 15.296875 0 19.796875 0 22.203125 -0.203125 
L 22.203125 2.390625 
C 15.796875 2.390625 15.40625 2.78125 15.40625 6.6875 
L 15.40625 25.90625 
C 15.40625 35.109375 21 42 28 42 
C 35.40625 42 36.203125 35.40625 36.203125 30.59375 
L 36.203125 6.6875 
C 36.203125 2.875 35.796875 2.390625 29.40625 2.390625 
L 29.40625 -0.203125 
C 31.796875 0 36.203125 0 38.796875 0 
C 41.40625 0 45.90625 0 48.296875 -0.203125 
L 48.296875 2.390625 
C 41.90625 2.390625 41.5 2.78125 41.5 6.6875 
z
" id="CMR17-110"/>
       <path d="M 29.203125 67.59375 
L 29.203125 65 
C 35.09375 65 36 64.40625 36 59.6875 
L 36 36.640625 
C 35.59375 37.140625 31.5 43.59375 23.40625 43.59375 
C 13.203125 43.59375 3.296875 34.5 3.296875 21.3125 
C 3.296875 8.203125 12.59375 -1 22.40625 -1 
C 30.90625 -1 35.296875 5.265625 35.796875 5.9375 
L 35.796875 -0.984375 
L 47.90625 -0.984375 
L 47.90625 2 
C 42 2 41.09375 2.59375 41.09375 7.390625 
L 41.09375 68.6875 
z
M 35.796875 11.796875 
C 35.796875 8.796875 34 6.09375 31.703125 4.09375 
C 28.296875 1.09375 24.90625 0.59375 23 0.59375 
C 20.09375 0.59375 9.703125 2.09375 9.703125 21.1875 
C 9.703125 40.8125 21.296875 42 23.90625 42 
C 28.5 42 32.203125 39.40625 34.5 35.796875 
C 35.796875 33.703125 35.796875 33.40625 35.796875 31.609375 
z
" id="CMR17-100"/>
       <path d="M 62.203125 67.59375 
L 4.5 67.59375 
L 2.796875 45.59375 
L 4.59375 45.59375 
C 5.90625 62.125 7.296875 65 22.703125 65 
C 24.5 65 27.40625 65 28.203125 64.90625 
C 30.09375 64.609375 30.09375 63.40625 30.09375 61.125 
L 30.09375 7.171875 
C 30.09375 3.59375 29.796875 2.5 21.5 2.5 
L 18.703125 2.5 
L 18.703125 0 
C 23.5 0 28.5 0 33.40625 0 
C 38.296875 0 43.296875 0 48.09375 0 
L 48.09375 2.5 
L 45.296875 2.5 
C 37 2.5 36.703125 3.59375 36.703125 7.171875 
L 36.703125 61.125 
C 36.703125 63.3125 36.703125 64.515625 38.5 64.90625 
C 39.296875 65 42.203125 65 44 65 
C 59.296875 65 60.796875 62.125 62.09375 45.59375 
L 63.90625 45.59375 
z
" id="CMR17-84"/>
       <path d="M 15.09375 40 
L 29.09375 40 
L 29.09375 42.578125 
L 15.09375 42.578125 
L 15.09375 61 
L 13.296875 61 
C 13.09375 50.703125 9.59375 41.6875 1.09375 41.6875 
L 1.09375 40 
L 9.796875 40 
L 9.796875 12.046875 
C 9.796875 10.15625 9.796875 -1 21.40625 -1 
C 27.296875 -1 30.703125 4.78125 30.703125 12.140625 
L 30.703125 17.8125 
L 28.90625 17.8125 
L 28.90625 12.234375 
C 28.90625 5.375 26.203125 0.796875 22 0.796875 
C 19.09375 0.796875 15.09375 2.78125 15.09375 11.84375 
z
" id="CMR17-116"/>
       <path d="M 41.5 30.203125 
C 41.5 35.296875 40.5 43.59375 28.703125 43.59375 
C 20.5 43.59375 16.5 37 15.296875 33.703125 
L 15.203125 33.703125 
L 15.203125 68.6875 
L 3.296875 67.59375 
L 3.296875 65 
C 9.203125 65 10.09375 64.40625 10.09375 59.640625 
L 10.09375 6.65625 
C 10.09375 2.875 9.703125 2.390625 3.296875 2.390625 
L 3.296875 -0.203125 
C 5.703125 0 10.09375 0 12.703125 0 
C 15.296875 0 19.796875 0 22.203125 -0.203125 
L 22.203125 2.390625 
C 15.796875 2.390625 15.40625 2.78125 15.40625 6.6875 
L 15.40625 25.90625 
C 15.40625 35.109375 21 42 28 42 
C 35.40625 42 36.203125 35.40625 36.203125 30.59375 
L 36.203125 6.6875 
C 36.203125 2.875 35.796875 2.390625 29.40625 2.390625 
L 29.40625 -0.203125 
C 31.796875 0 36.203125 0 38.796875 0 
C 41.40625 0 45.90625 0 48.296875 -0.203125 
L 48.296875 2.390625 
C 41.90625 2.390625 41.5 2.78125 41.5 6.6875 
z
" id="CMR17-104"/>
      </defs>
      <use transform="scale(0.996264)" xlink:href="#CMR17-71"/>
      <use transform="translate(72.355346 0)scale(0.996264)" xlink:href="#CMR17-114"/>
      <use transform="translate(107.636114 0)scale(0.996264)" xlink:href="#CMR17-111"/>
      <use transform="translate(153.326591 0)scale(0.996264)" xlink:href="#CMR17-117"/>
      <use transform="translate(204.221961 0)scale(0.996264)" xlink:href="#CMR17-110"/>
      <use transform="translate(255.11733 0)scale(0.996264)" xlink:href="#CMR17-100"/>
      <use transform="translate(336.088667 0)scale(0.996264)" xlink:href="#CMR17-84"/>
      <use transform="translate(394.791292 0)scale(0.996264)" xlink:href="#CMR17-114"/>
      <use transform="translate(430.072059 0)scale(0.996264)" xlink:href="#CMR17-117"/>
      <use transform="translate(480.967429 0)scale(0.996264)" xlink:href="#CMR17-116"/>
      <use transform="translate(516.248197 0)scale(0.996264)" xlink:href="#CMR17-104"/>
     </g>
    </g>
    <g id="PathCollection_4">
     <g>
      <use style="fill:#008000;fill-opacity:0.7;stroke:#008000;stroke-opacity:0.7;" x="176.084992" xlink:href="#m82492ced09" y="39.451563"/>
     </g>
    </g>
    <g id="text_15">
     <!-- Basic Pattern Recognizer -->
     <g transform="translate(194.084992 42.076563)scale(0.1 -0.1)">
      <defs>
       <path d="M 5.203125 68 
L 5.203125 65.40625 
C 12.09375 65.40625 13.203125 65.40625 13.203125 60.9375 
L 13.203125 7.0625 
C 13.203125 2.59375 12.09375 2.59375 5.203125 2.59375 
L 5.203125 0 
L 39.59375 0 
C 52.40625 0 60.703125 9.109375 60.703125 18.1875 
C 60.703125 27.203125 52.5 34.890625 41.796875 34.890625 
C 51.40625 36.8125 58.09375 43.296875 58.09375 51 
C 58.09375 59.40625 49.90625 68 37 68 
z
M 19.5 36 
L 19.5 61.515625 
C 19.5 64.921875 19.703125 65.40625 23.703125 65.40625 
L 36.5 65.40625 
C 46.40625 65.40625 50.796875 57.40625 50.796875 51.203125 
C 50.796875 43.609375 44.703125 36 33.90625 36 
z
M 23.703125 2.59375 
C 19.703125 2.59375 19.5 3.078125 19.5 6.453125 
L 19.5 34.40625 
L 38 34.40625 
C 48.296875 34.40625 53.296875 25.390625 53.296875 18.15625 
C 53.296875 10.921875 47.59375 2.59375 36.703125 2.59375 
z
" id="CMR17-66"/>
       <path d="M 36 25.828125 
C 36 32.375 36 35.84375 31.796875 39.734375 
C 28.09375 43 23.796875 44 20.40625 44 
C 12.5 44 6.796875 37.609375 6.796875 30.796875 
C 6.796875 27 9.796875 27 10.40625 27 
C 11.703125 27 14 27.78125 14 30.53125 
C 14 33 12.09375 34.078125 10.40625 34.078125 
C 10 34.078125 9.5 33.96875 9.203125 33.875 
C 11.296875 40.5 16.703125 42.40625 20.203125 42.40625 
C 25.203125 42.40625 30.703125 37.953125 30.703125 29.453125 
L 30.703125 25 
C 24.796875 25 17.703125 24.203125 12.09375 21.203125 
C 5.796875 17.703125 4 12.703125 4 8.90625 
C 4 1.203125 13 -1 18.296875 -1 
C 23.796875 -1 28.90625 2.171875 31.09375 7.984375 
C 31.296875 3.640625 34.09375 -0.28125 38.5 -0.28125 
C 40.59375 -0.28125 45.90625 1.09375 45.90625 8.859375 
L 45.90625 14.375 
L 44.09375 14.375 
L 44.09375 8.78125 
C 44.09375 2.78125 41.40625 2 40.09375 2 
C 36 2 36 7.15625 36 11.53125 
z
M 30.703125 13.59375 
C 30.703125 4.953125 24.5 0.59375 19 0.59375 
C 14 0.59375 10.09375 4.296875 10.09375 8.90625 
C 10.09375 11.890625 11.40625 17.1875 17.203125 20.390625 
C 22 23.09375 27.5 23.5 30.703125 23.5 
z
" id="CMR17-97"/>
       <path d="M 30.90625 42.140625 
C 30.90625 43.953125 30.796875 44.046875 30.203125 44.046875 
C 29.796875 44.046875 29.703125 43.953125 28.5 42.453125 
C 28.203125 42.046875 27.296875 41.03125 27 40.640625 
C 23.796875 44.046875 19.296875 44.046875 17.59375 44.046875 
C 6.5 44.046875 2.5 38.234375 2.5 32.4375 
C 2.5 23.40625 12.703125 21.328125 15.59375 20.703125 
C 21.90625 19.421875 24.09375 19.015625 26.203125 17.203125 
C 27.5 16.015625 29.703125 13.8125 29.703125 10.21875 
C 29.703125 6 27.296875 0.59375 18.09375 0.59375 
C 9.40625 0.59375 6.296875 7.1875 4.5 15.953125 
C 4.203125 17.34375 4.203125 17.453125 3.40625 17.453125 
C 2.59375 17.453125 2.5 17.34375 2.5 15.359375 
L 2.5 0.984375 
C 2.5 -0.796875 2.59375 -0.90625 3.203125 -0.90625 
C 3.703125 -0.90625 3.796875 -0.796875 4.296875 0 
C 4.90625 0.890625 6.40625 3.296875 7 4.3125 
C 9 1.609375 12.5 -1 18.09375 -1 
C 28 -1 33.296875 4.421875 33.296875 12.25 
C 33.296875 17.375 30.59375 20.078125 29.296875 21.28125 
C 26.296875 24.390625 22.796875 25.09375 18.59375 25.890625 
C 13.09375 27.109375 6.09375 28.515625 6.09375 34.640625 
C 6.09375 37.234375 7.5 42.765625 17.59375 42.765625 
C 28.296875 42.765625 28.90625 32.71875 29.09375 29.5 
C 29.203125 29 29.703125 28.890625 30 28.890625 
C 30.90625 28.890625 30.90625 29.203125 30.90625 30.90625 
z
" id="CMR17-115"/>
       <path d="M 15.5 61.078125 
C 15.5 63.265625 13.703125 65.15625 11.40625 65.15625 
C 9.203125 65.15625 7.296875 63.375 7.296875 61.078125 
C 7.296875 58.890625 9.09375 57 11.40625 57 
C 13.59375 57 15.5 58.796875 15.5 61.078125 
z
M 3.796875 42.28125 
L 3.796875 39.703125 
C 9.40625 39.703125 10.203125 39.09375 10.203125 34.328125 
L 10.203125 6.671875 
C 10.203125 2.875 9.796875 2.390625 3.40625 2.390625 
L 3.40625 -0.203125 
C 5.796875 0 10.09375 0 12.59375 0 
C 15 0 19.09375 0 21.40625 -0.203125 
L 21.40625 2.390625 
C 15.5 2.390625 15.296875 2.984375 15.296875 6.5625 
L 15.296875 43.375 
z
" id="CMR17-105"/>
       <path d="M 34.90625 35 
C 33 35 30.203125 35 30.203125 31.515625 
C 30.203125 28.71875 32.5 27.921875 33.796875 27.921875 
C 34.5 27.921875 37.40625 28.234375 37.40625 31.625 
C 37.40625 38.546875 30.59375 43.796875 22.90625 43.796875 
C 12.296875 43.796875 3.296875 34.03125 3.296875 21.296875 
C 3.296875 8.0625 12.703125 -1 22.90625 -1 
C 35.296875 -1 38.40625 10.578125 38.40625 11.6875 
C 38.40625 12.09375 38.296875 12.390625 37.59375 12.390625 
C 36.90625 12.390625 36.796875 12.296875 36.40625 10.984375 
C 33.796875 2.8125 28.09375 0.796875 23.796875 0.796875 
C 17.40625 0.796875 9.703125 6.671875 9.703125 21.390625 
C 9.703125 36.53125 17.09375 42 23 42 
C 26.90625 42 32.703125 40.203125 34.90625 35 
z
" id="CMR17-99"/>
       <path d="M 19.796875 31.90625 
L 35.796875 31.90625 
C 48.703125 31.90625 58.09375 40.28125 58.09375 49.75 
C 58.09375 59.234375 48.90625 68 35.796875 68 
L 5.203125 68 
L 5.203125 65.40625 
C 12.09375 65.40625 13.203125 65.40625 13.203125 60.921875 
L 13.203125 6.96875 
C 13.203125 2.5 12.09375 2.5 5.203125 2.5 
L 5.203125 0 
C 8.09375 0 13.40625 0 16.5 0 
C 19.59375 0 24.90625 0 27.796875 0 
L 27.796875 2.5 
C 20.90625 2.5 19.796875 2.5 19.796875 6.96875 
z
M 19.59375 34 
L 19.59375 61.53125 
C 19.59375 64.921875 19.796875 65.40625 23.796875 65.40625 
L 33.90625 65.40625 
C 46.796875 65.40625 50.5 58.03125 50.5 49.75 
C 50.5 40.6875 46.09375 34 33.90625 34 
z
" id="CMR17-80"/>
       <path d="M 38.09375 23 
C 38.5 23.40625 38.5 23.609375 38.5 24.625 
C 38.5 34.96875 33.09375 44 21.703125 44 
C 11.09375 44 2.703125 33.890625 2.703125 21.609375 
C 2.703125 8.609375 12.203125 -1 22.796875 -1 
C 34 -1 38.40625 9.484375 38.40625 11.5625 
C 38.40625 12.25 37.796875 12.25 37.59375 12.25 
C 36.90625 12.25 36.796875 12.046875 36.40625 10.875 
C 34.203125 4.140625 28.703125 0.796875 23.5 0.796875 
C 19.203125 0.796875 14.90625 3.171875 12.203125 7.5 
C 9.09375 12.546875 9.09375 18.375 9.09375 23 
z
M 9.203125 24.5 
C 9.90625 39.140625 17.59375 42.40625 21.59375 42.40625 
C 28.40625 42.40625 33 35.890625 33.09375 24.5 
z
" id="CMR17-101"/>
       <path d="M 39.203125 33.53125 
C 48.703125 35.4375 56.703125 41.8125 56.703125 49.78125 
C 56.703125 59.140625 46.09375 67.59375 32.09375 67.59375 
L 5.203125 67.59375 
L 5.203125 65 
C 12.09375 65 13.203125 65 13.203125 60.515625 
L 13.203125 6.484375 
C 13.203125 2 12.09375 2 5.203125 2 
L 5.203125 -0.40625 
C 8.09375 -0.40625 13.296875 -0.40625 16.40625 -0.40625 
C 19.5 -0.40625 24.703125 -0.40625 27.59375 -0.40625 
L 27.59375 2 
C 20.703125 2 19.59375 2 19.59375 6.515625 
L 19.59375 33 
L 31.296875 33 
C 37 33 40.203125 30.6875 41.59375 29.390625 
C 45.59375 25.5 45.59375 22.796875 45.59375 16 
C 45.59375 9.296875 45.59375 5.890625 48.59375 2.5 
C 52.40625 -1.59375 57.5 -2 59.703125 -2 
C 67.09375 -2 68.203125 6.1875 68.203125 7.859375 
C 68.203125 8.4375 68.203125 9.140625 67.296875 9.140625 
C 66.5 9.140625 66.40625 8.546875 66.40625 8.15625 
C 65.90625 1.75 63 -0.40625 59.90625 -0.40625 
C 54.40625 -0.40625 53.796875 5.859375 53.203125 11.9375 
C 52.90625 14.03125 52.703125 15.515625 52.5 17.703125 
C 51.90625 22.6875 51.09375 29.953125 39.203125 33.53125 
z
M 31 34.59375 
L 19.59375 34.59375 
L 19.59375 61.140625 
C 19.59375 64.515625 19.796875 65 23.796875 65 
L 31.09375 65 
C 39.40625 65 49.09375 62.140625 49.09375 49.84375 
C 49.09375 37.0625 38.5 34.59375 31 34.59375 
z
" id="CMR17-82"/>
       <path d="M 11.09375 18.1875 
C 13 16.6875 16.296875 15 20.296875 15 
C 28.203125 15 35 21.203125 35 29.5 
C 35 32.09375 34.203125 36.09375 31.203125 39.203125 
C 34 42.0625 38.09375 43 40.40625 43 
C 40.796875 43 41.40625 43 41.90625 42.71875 
C 41.5 42.625 40.59375 42.234375 40.59375 40.703125 
C 40.59375 39.484375 41.5 38.609375 42.796875 38.609375 
C 44.296875 38.609375 45.09375 39.578125 45.09375 40.84375 
C 45.09375 42.671875 43.59375 44.59375 40.40625 44.59375 
C 36.40625 44.59375 32.90625 42.78125 30.09375 40.3125 
C 27.09375 43.015625 23.5 44 20.296875 44 
C 12.40625 44 5.59375 37.796875 5.59375 29.5 
C 5.59375 23.78125 8.90625 20.1875 9.90625 19.1875 
C 6.90625 15.6875 6.90625 11.609375 6.90625 11.109375 
C 6.90625 8.515625 7.90625 4.71875 11.296875 2.625 
C 6.09375 1.328125 2 -2.640625 2 -7.59375 
C 2 -14.734375 11.5 -20 22.90625 -20 
C 33.90625 -20 43.796875 -14.9375 43.796875 -7.484375 
C 43.796875 6 29 6 21.296875 6 
C 19 6 14.90625 6 14.40625 6.109375 
C 11.296875 6.609375 9.203125 9.40625 9.203125 12.90625 
C 9.203125 13.796875 9.203125 16 11.09375 18.1875 
z
M 20.296875 16.6875 
C 11.5 16.6875 11.5 27.5 11.5 29.515625 
C 11.5 31.5 11.5 42.3125 20.296875 42.3125 
C 29.09375 42.3125 29.09375 31.5 29.09375 29.515625 
C 29.09375 27.5 29.09375 16.6875 20.296875 16.6875 
z
M 22.90625 -18.296875 
C 12.90625 -18.296875 6 -13.046875 6 -7.59375 
C 6 -4.515625 7.703125 -1.640625 9.90625 -0.0625 
C 12.40625 1.625 13.40625 1.625 20.203125 1.625 
C 28.40625 1.625 39.796875 1.625 39.796875 -7.59375 
C 39.796875 -13.046875 32.90625 -18.296875 22.90625 -18.296875 
z
" id="CMR17-103"/>
       <path d="M 36.09375 40.703125 
C 36.90625 41.71875 36.90625 41.90625 36.90625 42.109375 
C 36.90625 43 36.5 43 34.703125 43 
L 4.296875 43 
L 3.296875 27.5 
L 5.09375 27.5 
C 5.796875 37.203125 6.90625 41.40625 18.40625 41.40625 
L 30.59375 41.40625 
L 2 1.5 
C 2 0 2.09375 0 4.203125 0 
L 35.796875 0 
L 37.203125 18 
L 35.40625 18 
C 34.59375 6.90625 33.296875 1.796875 21.09375 1.796875 
L 8.296875 1.796875 
z
" id="CMR17-122"/>
      </defs>
      <use transform="scale(0.996264)" xlink:href="#CMR17-66"/>
      <use transform="translate(65.188754 0)scale(0.996264)" xlink:href="#CMR17-97"/>
      <use transform="translate(110.879232 0)scale(0.996264)" xlink:href="#CMR17-115"/>
      <use transform="translate(146.680569 0)scale(0.996264)" xlink:href="#CMR17-105"/>
      <use transform="translate(171.551628 0)scale(0.996264)" xlink:href="#CMR17-99"/>
      <use transform="translate(242.113254 0)scale(0.996264)" xlink:href="#CMR17-80"/>
      <use transform="translate(302.097101 0)scale(0.996264)" xlink:href="#CMR17-97"/>
      <use transform="translate(347.787578 0)scale(0.996264)" xlink:href="#CMR17-116"/>
      <use transform="translate(383.068346 0)scale(0.996264)" xlink:href="#CMR17-116"/>
      <use transform="translate(418.349114 0)scale(0.996264)" xlink:href="#CMR17-101"/>
      <use transform="translate(458.834774 0)scale(0.996264)" xlink:href="#CMR17-114"/>
      <use transform="translate(494.115542 0)scale(0.996264)" xlink:href="#CMR17-110"/>
      <use transform="translate(575.086878 0)scale(0.996264)" xlink:href="#CMR17-82"/>
      <use transform="translate(642.87798 0)scale(0.996264)" xlink:href="#CMR17-101"/>
      <use transform="translate(683.363641 0)scale(0.996264)" xlink:href="#CMR17-99"/>
      <use transform="translate(723.849301 0)scale(0.996264)" xlink:href="#CMR17-111"/>
      <use transform="translate(769.539778 0)scale(0.996264)" xlink:href="#CMR17-103"/>
      <use transform="translate(815.230255 0)scale(0.996264)" xlink:href="#CMR17-110"/>
      <use transform="translate(866.125625 0)scale(0.996264)" xlink:href="#CMR17-105"/>
      <use transform="translate(890.996684 0)scale(0.996264)" xlink:href="#CMR17-122"/>
      <use transform="translate(931.482344 0)scale(0.996264)" xlink:href="#CMR17-101"/>
      <use transform="translate(971.968005 0)scale(0.996264)" xlink:href="#CMR17-114"/>
     </g>
    </g>
   </g>
  </g>
 </g>
 <defs>
  <clipPath id="p84b0b88bc1">
   <rect height="201.688647" width="269.814244" x="43.385756" y="10.8"/>
  </clipPath>
 </defs>
</svg>
